<svg width="900" height="1260" viewBox="0 0 900 1260" xmlns="http://www.w3.org/2000/svg">
  <defs>
    <radialGradient id="core" cx="45%" cy="34%" r="62%">
      <stop offset="0" stop-color="#61f7ff" stop-opacity="0.72"/>
      <stop offset="0.34" stop-color="#315ee9" stop-opacity="0.44"/>
      <stop offset="0.66" stop-color="#11182e" stop-opacity="0.92"/>
      <stop offset="1" stop-color="#02030a"/>
    </radialGradient>
    <linearGradient id="slash" x1="0" y1="0" x2="1" y2="1">
      <stop offset="0" stop-color="#b7fbff" stop-opacity="0.85"/>
      <stop offset="0.48" stop-color="#2ef3ff" stop-opacity="0.22"/>
      <stop offset="1" stop-color="#7c3cff" stop-opacity="0.58"/>
    </linearGradient>
    <filter id="blur"><feGaussianBlur stdDeviation="18"/></filter>
  </defs>
  <rect width="900" height="1260" fill="url(#core)"/>
  <g opacity="0.26" stroke="#93f8ff" stroke-width="2">
    <path d="M-80 225 C180 140 318 270 558 182 S900 150 980 92" fill="none"/>
    <path d="M-100 588 C180 500 324 660 554 542 S884 512 1000 408" fill="none"/>
    <path d="M-120 875 C140 780 352 940 614 792 S940 740 1040 622" fill="none"/>
  </g>
  <g opacity="0.42" filter="url(#blur)">
    <ellipse cx="455" cy="500" rx="290" ry="118" fill="#00d9ff"/>
    <ellipse cx="420" cy="710" rx="210" ry="90" fill="#6e35ff"/>
  </g>
  <g opacity="0.55" fill="none" stroke="url(#slash)" stroke-width="18" stroke-linecap="round">
    <path d="M148 778 C280 568 544 676 716 428"/>
    <path d="M196 890 C364 722 542 844 736 642" opacity="0.58"/>
  </g>
  <g opacity="0.18" stroke="#ffffff" stroke-width="1">
    <path d="M90 160 H810 M90 220 H810 M90 280 H810 M90 340 H810 M90 400 H810 M90 460 H810 M90 520 H810 M90 580 H810 M90 640 H810 M90 700 H810 M90 760 H810 M90 820 H810 M90 880 H810 M90 940 H810 M90 1000 H810 M90 1060 H810"/>
    <path d="M120 130 V1130 M210 130 V1130 M300 130 V1130 M390 130 V1130 M480 130 V1130 M570 130 V1130 M660 130 V1130 M750 130 V1130"/>
  </g>
</svg>
